<?xml version="1.0" encoding="UTF-8" standalone="no"?>
<!-- Created with Inkscape (http://www.inkscape.org/) -->

<svg
   xmlns:dc="http://purl.org/dc/elements/1.1/"
   xmlns:cc="http://creativecommons.org/ns#"
   xmlns:rdf="http://www.w3.org/1999/02/22-rdf-syntax-ns#"
   xmlns:svg="http://www.w3.org/2000/svg"
   xmlns="http://www.w3.org/2000/svg"
   xmlns:sodipodi="http://sodipodi.sourceforge.net/DTD/sodipodi-0.dtd"
   xmlns:inkscape="http://www.inkscape.org/namespaces/inkscape"
   width="210mm"
   height="297mm"
   viewBox="0 0 210 297"
   version="1.1"
   id="svg631"
   inkscape:version="0.92.3 (2405546, 2018-03-11)"
   sodipodi:docname="minimount.svg">
  <defs
     id="defs625" />
  <sodipodi:namedview
     id="base"
     pagecolor="#ffffff"
     bordercolor="#666666"
     borderopacity="1.0"
     inkscape:pageopacity="0.0"
     inkscape:pageshadow="2"
     inkscape:zoom="0.0875"
     inkscape:cx="-1308.5714"
     inkscape:cy="560"
     inkscape:document-units="mm"
     inkscape:current-layer="layer1"
     showgrid="false"
     inkscape:window-width="1366"
     inkscape:window-height="705"
     inkscape:window-x="-8"
     inkscape:window-y="-8"
     inkscape:window-maximized="1" />
  <metadata
     id="metadata628">
    <rdf:RDF>
      <cc:Work
         rdf:about="">
        <dc:format>image/svg+xml</dc:format>
        <dc:type
           rdf:resource="http://purl.org/dc/dcmitype/StillImage" />
        <dc:title></dc:title>
      </cc:Work>
    </rdf:RDF>
  </metadata>
  <g
     inkscape:label="Layer 1"
     inkscape:groupmode="layer"
     id="layer1">
    <g
       id="g786"
       transform="matrix(0.85472051,0,0,0.96131427,-71.615924,-6.9604607)"
       inkscape:export-xdpi="96"
       inkscape:export-ydpi="96">
      <path
         style="fill:none;stroke:#000000;stroke-width:2;stroke-linecap:butt;stroke-linejoin:miter;stroke-miterlimit:4;stroke-dasharray:none;stroke-opacity:1"
         d="m 163.04663,361.61412 196.09729,1.27148 c 43.11025,-13.69359 81.56956,-59.0514 121.51444,-94.29525 L 556.92801,152.9215 c 29.9834,-77.934094 -7.7966,-93.839194 -33.6103,-120.697904 l -50.41563,-10.05814 c -18.45506,-7.73615 -42.95394,1.49234 -28.7627,-71.35009 l 2.90859,-69.464176 -59.6079,1.6386 c 14.19614,135.130056 -43.58063,213.738466 -86.468,278.7326 -52.25613,87.23124 -302.6549985,230.42287 -535.1806,-25.14539 -53.4672,-78.415604 -85.8382,-151.228844 -77.5624,-255.22581"
         id="path368"
         inkscape:connector-curvature="0"
         sodipodi:nodetypes="cccccccccccc"
         inkscape:export-xdpi="96"
         inkscape:export-ydpi="96" />
      <path
         style="fill:none;stroke:#000000;stroke-width:2;stroke-linecap:butt;stroke-linejoin:miter;stroke-miterlimit:4;stroke-dasharray:none;stroke-opacity:1"
         d="m 163.04663,361.61412 -330.60905,-1.29958 c -16.926,0.72257 -24.65321,-7.96597 -26.96001,-23.83163 l -1.54609,-17.93857 m -2.02911,-23.54275 -5.03018,-58.36381 -71.15462,-74.91539 c -70.0552,-86.928154 -84.5169,-195.010284 -94.3676,-280.3712 h 56.8791 l 20.8075,-0.2206 4.5704,42.673136"
         id="path370"
         inkscape:connector-curvature="0"
         sodipodi:nodetypes="ccccccccccc"
         inkscape:export-xdpi="96"
         inkscape:export-ydpi="96" />
      <path
         style="fill:none;stroke:#000000;stroke-width:2;stroke-linecap:butt;stroke-linejoin:miter;stroke-miterlimit:4;stroke-dasharray:none;stroke-opacity:1"
         d="m -284.56493,-41.524354 c 23.1642,147.790044 114.03071,235.121814 225.778311,284.487714 140.88459,35.86933 174.478759,9.90201 226.692189,-5.33413 C 286.81149,206.51664 375.19405,9.2180456 375.30271,-40.698084"
         id="path372"
         inkscape:connector-curvature="0"
         sodipodi:nodetypes="cccc"
         inkscape:export-xdpi="96"
         inkscape:export-ydpi="96" />
      <path
         style="fill:none;stroke:#000000;stroke-width:2;stroke-linecap:butt;stroke-linejoin:miter;stroke-miterlimit:4;stroke-dasharray:none;stroke-opacity:1"
         d="M 266.06903,262.30401 C 317.68482,215.01519 369.81104,168.01005 397.92509,107.65978 445.75591,12.102126 520.57901,58.561296 522.02501,92.572546 536.04631,112.52833 517.92131,147.31813 500.27076,172.05945 470.66889,232.67403 420.52754,278.30627 372.07098,325.1675 288.70914,368.04868 249.77975,311.48632 266.06903,262.30401 Z"
         id="path374"
         inkscape:connector-curvature="0"
         sodipodi:nodetypes="cccccc"
         inkscape:export-xdpi="96"
         inkscape:export-ydpi="96" />
      <path
         style="fill:none;stroke:#000000;stroke-width:2;stroke-linecap:butt;stroke-linejoin:miter;stroke-miterlimit:4;stroke-dasharray:none;stroke-opacity:1"
         d="m 262.9701,291.85968 c 10.0842,16.85579 17.58947,34.45828 59.41531,36.44998 85.93463,-37.56498 161.03671,-141.78518 189.2149,-211.58771 4.3907,-17.665524 3.75,-35.983464 -10.05486,-56.008514"
         id="path376"
         inkscape:connector-curvature="0"
         sodipodi:nodetypes="cccc"
         inkscape:export-xdpi="96"
         inkscape:export-ydpi="96" />
      <path
         style="fill:none;stroke:#000000;stroke-width:2;stroke-linecap:butt;stroke-linejoin:miter;stroke-miterlimit:4;stroke-dasharray:none;stroke-opacity:1"
         d="m -269.11163,-8.0090544 c 204.678611,46.0412704 409.35718,34.3411204 614.03575,5.02909 l 7.75624,-99.3243356 c -404.463089,27.859436 -504.07607,25.781516 -630.71679,4.808449 z"
         id="path378"
         inkscape:connector-curvature="0"
         sodipodi:nodetypes="ccccc"
         inkscape:export-xdpi="96"
         inkscape:export-ydpi="96" />
      <path
         style="fill:none;stroke:#000000;stroke-width:2;stroke-linecap:butt;stroke-linejoin:miter;stroke-miterlimit:4;stroke-dasharray:none;stroke-opacity:1"
         d="m -278.03643,-97.495851 c 65.542,-13.939859 138.34041,-14.156759 211.014011,-15.336759 m 210.398869,-4.0252 c 69.30326,1.2889 151.99066,-1.1116 209.30391,14.55351"
         id="path380"
         inkscape:connector-curvature="0"
         sodipodi:nodetypes="cccc"
         inkscape:export-xdpi="96"
         inkscape:export-ydpi="96" />
      <path
         style="fill:none;stroke:#000000;stroke-width:2;stroke-linecap:butt;stroke-linejoin:miter;stroke-miterlimit:4;stroke-dasharray:none;stroke-opacity:1"
         d="m -67.022419,-112.83261 c 17.45189,-90.5442 190.547099,-79.9063 210.398869,-4.0252 l 1.82446,23.3544 -210.711229,0.628661 z"
         id="path382"
         inkscape:connector-curvature="0"
         sodipodi:nodetypes="ccccc"
         inkscape:export-xdpi="96"
         inkscape:export-ydpi="96" />
      <path
         style="fill:none;stroke:#000000;stroke-width:2;stroke-linecap:butt;stroke-linejoin:miter;stroke-miterlimit:4;stroke-dasharray:none;stroke-opacity:1"
         d="m -66.784929,-105.97858 c -7.72548,-2.73033 -114.204901,-0.57828 -127.271301,3.33762 1.25,9.035601 85.2664,6.594621 128.545911,9.766211"
         id="path384"
         inkscape:connector-curvature="0"
         sodipodi:nodetypes="ccc"
         inkscape:export-xdpi="96"
         inkscape:export-ydpi="96" />
      <path
         style="fill:none;stroke:#000000;stroke-width:2;stroke-linecap:butt;stroke-linejoin:miter;stroke-miterlimit:4;stroke-dasharray:none;stroke-opacity:1"
         d="m 143.91096,-109.75691 c 46.67448,0.9121 95.05754,-1.4993 138.39531,5.90337 -21.80349,6.23923 -87.8785,7.311499 -137.10536,10.35013"
         id="path386"
         inkscape:connector-curvature="0"
         sodipodi:nodetypes="ccc"
         inkscape:export-xdpi="96"
         inkscape:export-ydpi="96" />
      <path
         style="fill:none;stroke:#000000;stroke-width:2;stroke-linecap:butt;stroke-linejoin:miter;stroke-miterlimit:4;stroke-dasharray:none;stroke-opacity:1"
         d="m -275.57513,-75.272894 -21.976,-0.94293 c -8.9654,6.60595 -4.2158,26.01701 1.2926,34.88923 l 23.9151,-0.31432"
         id="path388"
         inkscape:connector-curvature="0"
         sodipodi:nodetypes="cccc"
         inkscape:export-xdpi="96"
         inkscape:export-ydpi="96" />
      <path
         style="fill:none;stroke:#000000;stroke-width:2;stroke-linecap:butt;stroke-linejoin:miter;stroke-miterlimit:4;stroke-dasharray:none;stroke-opacity:1"
         d="m 350.09498,-75.901544 h 29.73221 c 3.75129,7.74677 3.05059,26.10041 1.25349,34.26061 l -34.2175,2e-5"
         id="path390"
         inkscape:connector-curvature="0"
         sodipodi:nodetypes="cccc"
         inkscape:export-xdpi="96"
         inkscape:export-ydpi="96" />
      <path
         style="fill:none;stroke:#000000;stroke-width:2;stroke-linecap:butt;stroke-linejoin:miter;stroke-miterlimit:4;stroke-dasharray:none;stroke-opacity:1"
         d="m 387.44002,-117.01021 -6.64329,-1.6385 -0.96954,42.747166"
         id="path392"
         inkscape:connector-curvature="0"
         inkscape:export-xdpi="96"
         inkscape:export-ydpi="96" />
      <path
         style="fill:none;stroke:#000000;stroke-width:2;stroke-linecap:butt;stroke-linejoin:miter;stroke-miterlimit:4;stroke-dasharray:none;stroke-opacity:1"
         d="m 380.7967,-118.64871 55.90961,-3.1432 10.34166,3.1431"
         id="path394"
         inkscape:connector-curvature="0"
         inkscape:export-xdpi="96"
         inkscape:export-ydpi="96" />
      <path
         style="fill:none;stroke:#000000;stroke-width:2;stroke-linecap:butt;stroke-linejoin:miter;stroke-miterlimit:4;stroke-dasharray:none;stroke-opacity:1"
         d="m -197.72714,294.52684 103.291321,-2.66708 c 23.97448,4.55518 18.9044,25.81537 0,27.11527 l -168.191111,-0.4445 -0.9141,-24.89274 18.2817,-17.78042 44.94682,0.12472"
         id="path396"
         inkscape:connector-curvature="0"
         sodipodi:nodetypes="ccccccc"
         inkscape:export-xdpi="96"
         inkscape:export-ydpi="96" />
      <path
         style="fill:none;stroke:#000000;stroke-width:2;stroke-linecap:butt;stroke-linejoin:miter;stroke-miterlimit:4;stroke-dasharray:none;stroke-opacity:1"
         d="m -113.17453,292.30429 1.37109,27.11521"
         id="path398"
         inkscape:connector-curvature="0"
         sodipodi:nodetypes="cc"
         inkscape:export-xdpi="96"
         inkscape:export-ydpi="96" />
      <path
         style="fill:none;stroke:#000000;stroke-width:2;stroke-linecap:butt;stroke-linejoin:miter;stroke-miterlimit:4;stroke-dasharray:none;stroke-opacity:1"
         d="m -263.54103,293.63779 65.81389,0.88905"
         id="path400"
         inkscape:connector-curvature="0"
         sodipodi:nodetypes="cc"
         inkscape:export-xdpi="96"
         inkscape:export-ydpi="96" />
      <path
         style="fill:none;stroke:#000000;stroke-width:2;stroke-linecap:butt;stroke-linejoin:miter;stroke-miterlimit:4;stroke-dasharray:none;stroke-opacity:1"
         d="m -229.26293,319.41953 0.91411,25.33719 -15.99651,18.22498 -0.9141,-44.89572"
         id="path402"
         inkscape:connector-curvature="0"
         sodipodi:nodetypes="cccc"
         inkscape:export-xdpi="96"
         inkscape:export-ydpi="96" />
      <path
         style="fill:none;stroke:#000000;stroke-width:2;stroke-linecap:butt;stroke-linejoin:miter;stroke-miterlimit:4;stroke-dasharray:none;stroke-opacity:1"
         d="m -262.62693,318.53053 0.457,44.45117 17.8246,-3e-5"
         id="path404"
         inkscape:connector-curvature="0"
         inkscape:export-xdpi="96"
         inkscape:export-ydpi="96" />
      <path
         style="fill:none;stroke:#000000;stroke-width:2;stroke-linecap:butt;stroke-linejoin:miter;stroke-miterlimit:4;stroke-dasharray:none;stroke-opacity:1"
         d="m -262.62693,346.53477 -19.6527,-0.88902 -52.5598,18.22497 c 0,0 -31.0787,-72.01096 -27.4224,-70.2329 3.6563,1.77805 -10.969,4.88963 -10.969,4.88963 L -487.57913,-9.8948744 c -12.8227,-26.4057096 2.8648,-26.9314396 14.8662,-30.8031196 l 56.8791,-18.85902 c 32.1126,-9.24431 33.5859,7.88001 42.6593,20.74497 l 5.8172,16.34449 11.6344,-3.14316"
         id="path406"
         inkscape:connector-curvature="0"
         sodipodi:nodetypes="ccccccccccc"
         inkscape:export-xdpi="96"
         inkscape:export-ydpi="96" />
      <path
         style="fill:none;stroke:#000000;stroke-width:2;stroke-linecap:butt;stroke-linejoin:miter;stroke-miterlimit:4;stroke-dasharray:none;stroke-opacity:1"
         d="m -407.43133,-61.442914 c 16.1239,-2.74383 33.5999,-8.77524 46.5375,-3.7718"
         id="path408"
         inkscape:connector-curvature="0"
         sodipodi:nodetypes="cc"
         inkscape:export-xdpi="96"
         inkscape:export-ydpi="96" />
      <path
         style="fill:none;stroke:#000000;stroke-width:2;stroke-linecap:butt;stroke-linejoin:miter;stroke-miterlimit:4;stroke-dasharray:none;stroke-opacity:1"
         d="m -367.35733,-22.467554 -24.5614,6.91498 -4.5245,-10.68679 -48.4765,14.45859 105.3556,247.053574 46.5374,-16.34453 -4.5995,-9.46111 12.927,-5.02909 11.0631,24.54836 c 7.2592,14.29261 3.2037,25.28387 -23.915,29.54581"
         id="path410"
         inkscape:connector-curvature="0"
         sodipodi:nodetypes="cccccccccc"
         inkscape:export-xdpi="96"
         inkscape:export-ydpi="96" />
      <path
         style="fill:none;stroke:#000000;stroke-width:2;stroke-linecap:butt;stroke-linejoin:miter;stroke-miterlimit:4;stroke-dasharray:none;stroke-opacity:1"
         d="m -400.88183,-24.855064 95.9786,229.368194 19.8813,-6.77878"
         id="path412"
         inkscape:connector-curvature="0"
         inkscape:export-xdpi="96"
         inkscape:export-ydpi="96" />
      <path
         style="fill:none;stroke:#000000;stroke-width:2;stroke-linecap:round;stroke-linejoin:round;stroke-miterlimit:4;stroke-dasharray:none;stroke-opacity:1"
         d="m -285.02193,197.73435 13.7112,-12.2241 8.5695,-1.33355 -21.958,20.26137"
         id="path414"
         inkscape:connector-curvature="0"
         sodipodi:nodetypes="cccc"
         inkscape:export-xdpi="96"
         inkscape:export-ydpi="96" />
      <path
         style="fill:none;stroke:#000000;stroke-width:2;stroke-linecap:butt;stroke-linejoin:miter;stroke-miterlimit:4;stroke-dasharray:none;stroke-opacity:1"
         d="m -262.74123,184.1767 5.8273,10.11267 3.8848,-2.66705 c 4.7235,13.32592 8.999,26.51921 0,35.78322 l -18.9671,18.89176"
         id="path416"
         inkscape:connector-curvature="0"
         sodipodi:nodetypes="ccccc"
         inkscape:export-xdpi="96"
         inkscape:export-ydpi="96" />
      <path
         style="fill:none;stroke:#000000;stroke-width:2;stroke-linecap:butt;stroke-linejoin:miter;stroke-miterlimit:4;stroke-dasharray:none;stroke-opacity:1"
         d="m -339.56413,235.2728 34.6609,-30.75967"
         id="path418"
         inkscape:connector-curvature="0"
         inkscape:export-xdpi="96"
         inkscape:export-ydpi="96" />
      <path
         style="fill:none;stroke:#000000;stroke-width:2;stroke-linecap:butt;stroke-linejoin:miter;stroke-miterlimit:4;stroke-dasharray:none;stroke-opacity:1"
         d="m -277.93783,252.52046 12.7972,30.89357 11.6545,0.44455"
         id="path420"
         inkscape:connector-curvature="0"
         inkscape:export-xdpi="96"
         inkscape:export-ydpi="96" />
      <path
         style="fill:none;stroke:#000000;stroke-width:2;stroke-linecap:butt;stroke-linejoin:miter;stroke-miterlimit:4;stroke-dasharray:none;stroke-opacity:1"
         d="m -297.55113,258.53224 v 0 l 14.8661,34.26066 19.144,0.84486"
         id="path422"
         inkscape:connector-curvature="0"
         inkscape:export-xdpi="96"
         inkscape:export-ydpi="96" />
      <ellipse
         style="fill:none;fill-opacity:1;stroke:#000000;stroke-width:2;stroke-linecap:round;stroke-linejoin:round;stroke-miterlimit:4;stroke-dasharray:none;stroke-opacity:1"
         id="ellipse424"
         cx="-297.22797"
         cy="313.69501"
         rx="19.02457"
         ry="17.717255"
         inkscape:export-xdpi="96"
         inkscape:export-ydpi="96" />
      <path
         style="fill:none;stroke:#000000;stroke-width:2;stroke-linecap:butt;stroke-linejoin:miter;stroke-miterlimit:4;stroke-dasharray:none;stroke-opacity:1"
         d="m -85.925839,18.254276 -0.91418,90.662864 241.736239,-2.51452 V 17.136446"
         id="path426"
         inkscape:connector-curvature="0"
         sodipodi:nodetypes="cccc"
         inkscape:export-xdpi="96"
         inkscape:export-ydpi="96" />
      <path
         style="fill:none;stroke:#000000;stroke-width:2;stroke-linecap:butt;stroke-linejoin:miter;stroke-miterlimit:4;stroke-dasharray:none;stroke-opacity:1"
         d="m -85.847409,93.411596 239.529329,-0.0763"
         id="path428"
         inkscape:connector-curvature="0"
         sodipodi:nodetypes="cc"
         inkscape:export-xdpi="96"
         inkscape:export-ydpi="96" />
      <rect
         style="fill:none;fill-opacity:1;stroke:#000000;stroke-width:2;stroke-linecap:round;stroke-linejoin:round;stroke-miterlimit:4;stroke-dasharray:none;stroke-opacity:1"
         id="rect430"
         width="182.99826"
         height="53.267757"
         x="-63.288158"
         y="29.365843"
         inkscape:export-xdpi="96"
         inkscape:export-ydpi="96" />
      <path
         style="fill:none;stroke:#000000;stroke-width:2;stroke-linecap:butt;stroke-linejoin:miter;stroke-miterlimit:4;stroke-dasharray:none;stroke-opacity:1"
         d="m -25.459019,37.631326 -10.28451,18.50923 21.14042,-0.66106 z"
         id="path432"
         inkscape:connector-curvature="0"
         inkscape:export-xdpi="96"
         inkscape:export-ydpi="96" />
      <path
         inkscape:connector-curvature="0"
         id="path434"
         d="m -25.796229,77.255496 -11.09369,-15.54213 22.8038,0.5551 z"
         style="fill:none;stroke:#000000;stroke-width:2;stroke-linecap:butt;stroke-linejoin:miter;stroke-miterlimit:4;stroke-dasharray:none;stroke-opacity:1"
         inkscape:export-xdpi="96"
         inkscape:export-ydpi="96" />
      <g
         id="g440"
         transform="matrix(0.51958219,0,0,0.38494248,-71.791689,46.654146)"
         style="stroke-width:4.47203255;stroke-miterlimit:4;stroke-dasharray:none"
         inkscape:export-xdpi="96"
         inkscape:export-ydpi="96">
        <path
           d="m 91.272214,5.0129341 a 5.0554318,4.8191962 0 0 1 3.666688,5.2052359 5.0554318,4.8191962 0 0 1 -4.832125,4.253669 5.0554318,4.8191962 0 0 1 -5.151692,-3.898002 5.0554318,4.8191962 0 0 1 3.248914,-5.4515997"
           sodipodi:open="true"
           sodipodi:end="4.3664945"
           sodipodi:start="4.9835769"
           sodipodi:ry="4.8191962"
           sodipodi:rx="5.0554318"
           sodipodi:cy="9.6560049"
           sodipodi:cx="89.917984"
           sodipodi:type="arc"
           id="path436"
           style="fill:none;fill-opacity:1;stroke:#000000;stroke-width:4.47203255;stroke-linecap:round;stroke-linejoin:round;stroke-miterlimit:4;stroke-dasharray:none;stroke-opacity:1" />
        <path
           inkscape:connector-curvature="0"
           id="path438"
           d="m 89.589203,2.464336 0.185126,10.036606"
           style="fill:none;stroke:#000000;stroke-width:4.47203255;stroke-linecap:butt;stroke-linejoin:miter;stroke-miterlimit:4;stroke-dasharray:none;stroke-opacity:1" />
      </g>
      <path
         style="fill:none;fill-opacity:1;stroke:#000000;stroke-width:2;stroke-linecap:round;stroke-linejoin:round;stroke-miterlimit:4;stroke-dasharray:none;stroke-opacity:1"
         id="path442"
         sodipodi:type="arc"
         sodipodi:cx="59.834583"
         sodipodi:cy="57.054749"
         sodipodi:rx="19.989285"
         sodipodi:ry="17.916098"
         sodipodi:start="4.9835782"
         sodipodi:end="4.9409435"
         sodipodi:open="true"
         d="M 65.189261,39.79343 A 19.989285,17.916098 0 0 1 79.149298,61.669814 19.989285,17.916098 0 0 1 54.891637,74.414446 19.989285,17.916098 0 0 1 40.4145,52.809739 19.989285,17.916098 0 0 1 64.363553,39.604561"
         inkscape:export-xdpi="96"
         inkscape:export-ydpi="96" />
      <path
         style="fill:none;fill-opacity:1;stroke:#000000;stroke-width:2;stroke-linecap:round;stroke-linejoin:round;stroke-miterlimit:4;stroke-dasharray:none;stroke-opacity:1"
         id="path444"
         sodipodi:type="arc"
         sodipodi:cx="59.235828"
         sodipodi:cy="57.054749"
         sodipodi:rx="8.0794182"
         sodipodi:ry="7.5436192"
         sodipodi:start="4.9835782"
         sodipodi:end="4.9409398"
         sodipodi:open="true"
         d="m 61.400122,49.786826 a 8.0794182,7.5436192 0 0 1 5.642474,9.211101 8.0794182,7.5436192 0 0 1 -9.80463,5.36617 8.0794182,7.5436192 0 0 1 -5.851497,-9.0967 8.0794182,7.5436192 0 0 1 9.679883,-5.560101"
         inkscape:export-xdpi="96"
         inkscape:export-ydpi="96" />
      <path
         style="fill:none;stroke:#000000;stroke-width:2;stroke-linecap:butt;stroke-linejoin:miter;stroke-miterlimit:4;stroke-dasharray:none;stroke-opacity:1"
         d="m 27.126791,147.01359 81.363469,0.82428 0.91411,46.22925 -176.417789,-3.55611 v -44.45116 l 79.526,0.80568"
         id="path446"
         inkscape:connector-curvature="0"
         sodipodi:nodetypes="cccccc"
         inkscape:export-xdpi="96"
         inkscape:export-ydpi="96" />
      <path
         style="fill:none;stroke:#000000;stroke-width:2;stroke-linecap:butt;stroke-linejoin:miter;stroke-miterlimit:4;stroke-dasharray:none;stroke-opacity:1"
         d="m -67.013419,146.05985 30.1647,-31.11588 161.792469,0.88903 -16.45349,32.00487"
         id="path448"
         inkscape:connector-curvature="0"
         sodipodi:nodetypes="cccc"
         inkscape:export-xdpi="96"
         inkscape:export-ydpi="96" />
      <path
         style="fill:none;stroke:#000000;stroke-width:2;stroke-linecap:butt;stroke-linejoin:miter;stroke-miterlimit:4;stroke-dasharray:none;stroke-opacity:1"
         d="m 124.94372,115.833 1.82819,40.00609 -17.36754,38.22803"
         id="path450"
         inkscape:connector-curvature="0"
         sodipodi:nodetypes="ccc"
         inkscape:export-xdpi="96"
         inkscape:export-ydpi="96" />
      <path
         style="fill:none;stroke:#000000;stroke-width:2;stroke-linecap:butt;stroke-linejoin:miter;stroke-miterlimit:4;stroke-dasharray:none;stroke-opacity:1"
         d="m 12.819681,107.38726 v 7.55671"
         id="path452"
         inkscape:connector-curvature="0"
         inkscape:export-xdpi="96"
         inkscape:export-ydpi="96" />
      <path
         style="fill:none;stroke:#000000;stroke-width:2;stroke-linecap:butt;stroke-linejoin:miter;stroke-miterlimit:4;stroke-dasharray:none;stroke-opacity:1"
         d="m 54.708491,107.83182 v 7.55665"
         id="path454"
         inkscape:connector-curvature="0"
         inkscape:export-xdpi="96"
         inkscape:export-ydpi="96" />
      <path
         style="fill:none;stroke:#000000;stroke-width:2;stroke-linecap:butt;stroke-linejoin:miter;stroke-miterlimit:4;stroke-dasharray:none;stroke-opacity:1"
         d="M 12.054661,147.83787 0.17156145,170.95251 C 9.6666715,156.45591 25.185561,163.44109 23.937681,174.06409 l 7.7697,-20.44756 c -2.2652,-9.71338 -10.4694,-11.65124 -19.65272,-5.77866 z"
         id="path456"
         inkscape:connector-curvature="0"
         sodipodi:nodetypes="ccccc"
         inkscape:export-xdpi="96"
         inkscape:export-ydpi="96" />
      <path
         style="fill:none;stroke:#000000;stroke-width:2;stroke-linecap:butt;stroke-linejoin:miter;stroke-miterlimit:4;stroke-dasharray:none;stroke-opacity:1"
         d="M 0.17156145,170.95251 C 1.0702715,187.51947 20.413881,186.36877 23.937681,174.06409"
         id="path458"
         inkscape:connector-curvature="0"
         sodipodi:nodetypes="cc"
         inkscape:export-xdpi="96"
         inkscape:export-ydpi="96" />
      <path
         style="fill:none;stroke:#000000;stroke-width:2;stroke-linecap:butt;stroke-linejoin:miter;stroke-miterlimit:4;stroke-dasharray:none;stroke-opacity:1"
         d="m 11.597681,191.84457 -0.4571,7.55671 c 16.89471,11.66783 31.07341,8.36692 44.333,0"
         id="path460"
         inkscape:connector-curvature="0"
         sodipodi:nodetypes="ccc"
         inkscape:export-xdpi="96"
         inkscape:export-ydpi="96" />
      <path
         style="fill:none;stroke:#000000;stroke-width:2;stroke-linecap:butt;stroke-linejoin:miter;stroke-miterlimit:4;stroke-dasharray:none;stroke-opacity:1"
         d="M 11.140581,199.40128 C -4.4408085,197.28345 -0.29121855,214.88927 9.3123615,215.4037 29.394081,222.27686 74.005501,216.66095 55.473581,199.40128"
         id="path462"
         inkscape:connector-curvature="0"
         sodipodi:nodetypes="ccc"
         inkscape:export-xdpi="96"
         inkscape:export-ydpi="96" />
      <path
         style="fill:none;stroke:#000000;stroke-width:2;stroke-linecap:butt;stroke-linejoin:miter;stroke-miterlimit:4;stroke-dasharray:none;stroke-opacity:1"
         d="m 55.473581,199.40128 v 0 0 0 l -0.45709,-6.44541"
         id="path464"
         inkscape:connector-curvature="0"
         inkscape:export-xdpi="96"
         inkscape:export-ydpi="96" />
    </g>
  </g>
</svg>
